<svg width="75" height="75" viewBox="0 0 75 75" fill="none" xmlns="http://www.w3.org/2000/svg">
<path d="M0 37.1399C0 24.4134 0 18.0502 2.39935 13.156C4.69318 8.47707 8.47707 4.69318 13.156 2.39935C18.0502 0 24.4134 0 37.1399 0C49.8663 0 56.2295 0 61.1237 2.39935C65.8027 4.69318 69.5866 8.47707 71.8804 13.156C74.2797 18.0502 74.2797 24.4134 74.2797 37.1399C74.2797 49.8663 74.2797 56.2295 71.8804 61.1237C69.5866 65.8027 65.8027 69.5866 61.1237 71.8804C56.2295 74.2797 49.8663 74.2797 37.1399 74.2797C24.4134 74.2797 18.0502 74.2797 13.156 71.8804C8.47707 69.5866 4.69318 65.8027 2.39935 61.1237C0 56.2295 0 49.8663 0 37.1399Z" fill="url(#paint0_linear_1046_16346)"/>
<path fill-rule="evenodd" clip-rule="evenodd" d="M13.3525 18.792C13.844 16.8261 15.836 15.6309 17.8019 16.1224C21.1158 16.9509 25.6546 19.074 29.4227 22.6768C33.2607 26.3465 36.4036 31.6714 36.4036 38.7148V42.3839H22.4155C20.3892 42.3839 18.7465 40.7412 18.7465 38.7148C18.7465 36.6885 20.3892 35.0458 22.4155 35.0458H28.6138C27.8731 32.1594 26.2877 29.8318 24.3516 27.9806C21.5842 25.3346 18.2117 23.7887 16.0221 23.2413C14.0563 22.7498 12.8611 20.7578 13.3525 18.792Z" fill="white"/>
<path d="M35.9445 49.9511C35.9445 52.6107 33.7885 54.7667 31.1289 54.7667C28.4694 54.7667 26.3134 52.6107 26.3134 49.9511C26.3134 47.2916 28.4694 45.1356 31.1289 45.1356C33.7885 45.1356 35.9445 47.2916 35.9445 49.9511Z" fill="white"/>
<path fill-rule="evenodd" clip-rule="evenodd" d="M38.0007 32.5233H51.9888C54.0152 32.5233 55.6579 34.166 55.6579 36.1923C55.6579 38.2187 54.0152 39.8613 51.9888 39.8613H45.7906C46.5313 42.7478 48.1167 45.0754 50.0528 46.9266C52.8201 49.5726 56.1927 51.1185 58.3822 51.6659C60.3481 52.1573 61.5433 54.1494 61.0518 56.1152C60.5604 58.081 58.5683 59.2763 56.6025 58.7848C53.2885 57.9563 48.7497 55.8332 44.9817 52.2304C41.1437 48.5607 38.0007 43.2358 38.0007 36.1923V32.5233Z" fill="white"/>
<path d="M47.6331 24.4973C47.6331 27.1569 45.4771 29.3129 42.8175 29.3129C40.158 29.3129 38.002 27.1569 38.002 24.4973C38.002 21.8378 40.158 19.6818 42.8175 19.6818C45.4771 19.6818 47.6331 21.8378 47.6331 24.4973Z" fill="white"/>
<defs>
<linearGradient id="paint0_linear_1046_16346" x1="12.2246" y1="33.1502" x2="64.7754" y2="52.1618" gradientUnits="userSpaceOnUse">
<stop stop-color="#1E34FF"/>
<stop offset="1" stop-color="#7A87FF"/>
</linearGradient>
</defs>
</svg>
